#!OML:ASF H:\Terrain\Patient Classification 1\Animal1\Tuesday\Animal1.ASF
:FULLY-SPECIFIED
:DEGREES
1317
root 10.8328 14.5788 -3.88969 44.6235 -25.8827 -0.743339
lowerback 40.8312 -4.75906 3.66498
upperback 8.6706 -4.62533 -0.964079
thorax -10.2009 -2.19439 -0.951281
lowerneck -7.09751 3.24783 -6.08362
upperneck -21.6174 6.92465 13.7716
head -5.98247 2.93276 5.30354
rclavicle 3.97569e-014 4.34344e-014
rhumerus 64.6622 -20.3299 -62.3317
rradius 19.6947
rwrist -14.2149
rhand -25.706 31.8634
rfingers 7.12502
rthumb 0.829669 1.88526
lclavicle 3.97569e-014 4.34344e-014
lhumerus 1.26316 -0.738738 45.5838
lradius 70.1014
lwrist -0.0749419
lhand 24.1568 34.1947
lfingers 7.12502
lthumb 48.3859 56.2255
rfemur -91.9607 -0.438354 16.3284
rtibia 57.5315
rfoot -8.30071 -0.698952
rtoes -6.159
lfemur -57.1926 12.5453 6.76307
ltibia 48.651
lfoot -12.8635 20.399
ltoes 2.09208
1318
root 10.8591 14.5842 -3.89939 44.7781 -25.0323 -0.966687
lowerback 40.9898 -4.80313 4.12119
upperback 8.70804 -4.46455 -0.808275
thorax -10.2072 -2.12931 -1.08192
lowerneck -7.45256 3.17138 -6.07628
upperneck -21.4825 6.78806 13.6245
head -5.86113 2.89634 5.26231
rclavicle 1.43125e-014 6.06293e-015
rhumerus 64.1976 -19.8035 -61.9236
rradius 19.1847
rwrist -14.1505
rhand -26.3153 30.8651
rfingers 7.12502
rthumb 0.241243 0.885447
lclavicle 1.43125e-014 6.06293e-015
lhumerus 0.893533 0.00104798 44.7707
lradius 69.1535
lwrist -1.46165
lhand 22.9767 33.1057
lfingers 7.12502
lthumb 47.2973 55.6398
rfemur -91.8488 -0.622318 16.4145
rtibia 57.4981
rfoot -8.12051 -1.06043
rtoes -4.17634
lfemur -57.5662 12.5151 7.12781
ltibia 48.4566
lfoot -12.5325 20.6084
ltoes -0.861938
1319
root 10.8893 14.582 -3.91337 44.9958 -24.4139 -0.991945
lowerback 40.8895 -4.71417 4.21977
upperback 8.85431 -4.29931 -0.630316
thorax -9.99061 -2.05682 -1.02269
lowerneck -7.89477 3.07223 -6.33421
upperneck -21.604 6.67516 13.5652
head -5.81972 2.88045 5.30408
rclavicle 1.59028e-015 1.88845e-015
rhumerus 64.076 -19.3812 -61.6868
rradius 18.7209
rwrist -13.6191
rhand -26.5538 29.8678
rfingers 7.12502
rthumb 0.0108913 -0.111949
lclavicle 1.59028e-015 1.88845e-015
lhumerus 0.547228 0.45541 43.3412
lradius 68.4854
lwrist -1.5808
lhand 22.0735 32.8977
lfingers 7.12502
lthumb 46.4615 55.7975
rfemur -92.0727 -0.742269 16.3459
rtibia 57.3831
rfoot -7.4974 -2.24882
rtoes -11.3617
lfemur -58.1772 12.5388 7.17613
ltibia 48.4167
lfoot -12.0939 21.1298
ltoes -5.75466
1320
root 10.921 14.5908 -3.91108 44.7418 -23.9117 -1.14034
lowerback 41.3228 -4.643 4.39678
upperback 9.03148 -4.1237 -0.617945
thorax -9.9201 -1.97824 -1.16436
lowerneck -8.04603 2.96662 -6.29646
upperneck -21.7356 6.54108 13.5313
head -5.81987 2.81623 5.29694
rclavicle 1.27222e-014 5.1684e-014
rhumerus 63.9726 -19.1482 -61.8572
rradius 18.0667
rwrist -12.9208
rhand -25.0167 30.7982
rfingers 7.12502
rthumb 1.49543 0.823741
lclavicle 1.27222e-014 5.1684e-014
lhumerus 0.101744 0.929737 42.6949
lradius 67.8185
lwrist -2.12871
lhand 21.6425 33.205
lfingers 7.12502
lthumb 46.062 56.2737
rfemur -91.6197 -0.754501 16.3312
rtibia 57.1909
rfoot -7.14463 -3.15186
rtoes -16.528
lfemur -58.1822 12.3381 7.31979
ltibia 48.4604
lfoot -11.0783 21.8684
ltoes -11.2645
1321
root 10.9527 14.5887 -3.92006 44.8881 -23.2046 -1.40854
lowerback 41.3145 -4.59105 4.75433
upperback 9.16826 -3.91911 -0.593276
thorax -9.76308 -1.88936 -1.41319
lowerneck -8.39492 2.79728 -6.13807
upperneck -21.4656 6.29379 13.6381
head -5.64589 2.69875 5.31472
rclavicle 3.97569e-015 3.16068e-014
rhumerus 63.7338 -18.8386 -61.774
rradius 17.294
rwrist -12.7089
rhand -23.4259 30.9397
rfingers 7.12502
rthumb 3.03179 0.981502
lclavicle 3.97569e-015 3.16068e-014
lhumerus -0.0929963 1.23205 41.9808
lradius 67.0023
lwrist -2.69615
lhand 21.299 33.5297
lfingers 7.12502
lthumb 45.7432 56.7304
rfemur -91.5012 -0.873445 16.5092
rtibia 57.0526
rfoot -7.08721 -3.44066
rtoes -15.9672
lfemur -58.6763 12.556 7.47294
ltibia 48.5804
lfoot -9.55019 22.1537
ltoes -17.5216
1322
root 10.9858 14.5926 -3.93145 44.9262 -22.5735 -1.47762
lowerback 41.23 -4.5179 4.93567
upperback 9.30818 -3.75898 -0.540158
thorax -9.57191 -1.81697 -1.52519
lowerneck -8.74106 2.60372 -6.32955
upperneck -21.1207 6.05418 13.951
head -5.46165 2.60509 5.46041
rclavicle 7.95139e-014 -5.54609e-014
rhumerus 63.1802 -18.0685 -60.7867
rradius 16.8308
rwrist -13.1451
rhand -23.7574 29.3975
rfingers 7.12502
rthumb 2.71169 -0.564968
lclavicle 7.95139e-014 -5.54609e-014
lhumerus -0.416737 1.44823 41.3989
lradius 66.1698
lwrist -3.27242
lhand 21.1113 33.3566
lfingers 7.12502
lthumb 45.5689 56.6285
rfemur -91.3543 -1.0428 16.3987
rtibia 56.9618
rfoot -7.11472 -3.73297
rtoes -14.1189
lfemur -59.1274 12.5308 7.55954
ltibia 48.663
lfoot -9.08579 22.2011
ltoes -21.0076
1323
root 11.0164 14.6001 -3.94266 44.8112 -22.1708 -1.46747
lowerback 41.2443 -4.32417 4.85356
upperback 9.47176 -3.57628 -0.641765
thorax -9.38653 -1.72873 -1.6746
lowerneck -8.81215 2.54151 -5.96062
upperneck -21.0877 5.9645 14.0186
head -5.42161 2.5327 5.42144
rclavicle -1.19271e-014 3.20043e-014
rhumerus 62.3036 -17.2728 -59.7662
rradius 16.9515
rwrist -14.1083
rhand -24.1538 27.8296
rfingers 7.12502
rthumb 2.32883 -2.13743
lclavicle -1.19271e-014 3.20043e-014
lhumerus -0.872365 1.47535 40.7642
lradius 65.467
lwrist -3.48201
lhand 20.9813 33.034
lfingers 7.12502
lthumb 45.4481 56.3548
rfemur -91.1287 -1.02462 15.9453
rtibia 56.9324
rfoot -7.02471 -4.27067
rtoes -13.8567
lfemur -59.2998 12.3606 7.64148
ltibia 48.7052
lfoot -8.77009 22.1032
ltoes -24.5167
1324
root 11.0463 14.594 -3.95754 44.8733 -21.7176 -1.62092
lowerback 41.0944 -4.05782 4.78904
upperback 9.6594 -3.31542 -0.772382
thorax -9.1221 -1.60482 -1.90232
lowerneck -8.85168 2.50568 -5.1052
upperneck -21.09 5.86442 13.9333
head -5.3848 2.42093 5.24608
rclavicle -6.36111e-015 -1.88845e-014
rhumerus 61.6328 -16.9163 -59.7492
rradius 17.4038
rwrist -14.9221
rhand -22.5696 26.0918
rfingers 7.12502
rthumb 3.85878 -3.85302
lclavicle -6.36111e-015 -1.88845e-014
lhumerus -1.19767 1.68036 40.4972
lradius 64.7351
lwrist -4.14326
lhand 20.5654 33.1435
lfingers 7.12502
lthumb 45.0614 56.6188
rfemur -91.1457 -0.934409 15.7406
rtibia 56.9418
rfoot -6.7002 -4.93246
rtoes -15.7252
lfemur -59.5754 12.4826 7.83571
ltibia 48.6956
lfoot -9.74893 21.6874
ltoes -23.1243
1325
root 11.0833 14.5823 -3.9712 44.9938 -21.0948 -1.76184
lowerback 40.8207 -3.89444 4.90498
upperback 9.79801 -3.09596 -0.797013
thorax -8.87383 -1.5019 -2.09258
lowerneck -9.04128 2.33491 -4.72542
upperneck -20.8577 5.61163 14.1317
head -5.24828 2.27097 5.25084
rclavicle 3.4191e-014 -5.46658e-016
rhumerus 61.1311 -16.5828 -59.8672
rradius 17.8496
rwrist -16.3924
rhand -19.7206 23.4749
rfingers 7.12502
rthumb 6.60957 -6.40195
lclavicle 3.4191e-014 -5.46658e-016
lhumerus -1.57051 1.56676 39.877
lradius 64.0623
lwrist -4.06827
lhand 20.141 33.5148
lfingers 7.12502
lthumb 44.6664 57.1445
rfemur -91.2592 -1.07037 15.7822
rtibia 56.9849
rfoot -6.31581 -5.45633
rtoes -17.5597
lfemur -60.1102 12.6736 7.9655
ltibia 48.6339
lfoot -9.96405 21.4427
ltoes -22.4126
1326
root 11.1248 14.5832 -3.9802 44.8947 -20.3357 -1.88302
lowerback 40.8413 -3.87452 5.22574
upperback 9.85575 -2.93935 -0.756631
thorax -8.8092 -1.43065 -2.27999
lowerneck -9.07552 2.14119 -4.80295
upperneck -20.7032 5.37471 14.4306
head -5.1734 2.1528 5.36705
rclavicle -2.46493e-014 7.11152e-014
rhumerus 60.1051 -15.2671 -58.2608
rradius 16.9633
rwrist -17.5391
rhand -19.7443 25.2428
rfingers 7.12502
rthumb 6.58669 -4.63479
lclavicle -2.46493e-014 7.11152e-014
lhumerus -2.10196 1.26108 39.7249
lradius 63.3368
lwrist -3.74772
lhand 18.736 33.7654
lfingers 7.12502
lthumb 43.3558 57.8844
rfemur -91.025 -1.33543 15.9043
rtibia 57.0305
rfoot -6.07226 -5.95284
rtoes -18.4378
lfemur -60.4979 12.7322 8.09892
ltibia 48.573
lfoot -6.01165 21.199
ltoes -33.9628
1327
root 11.1679 14.5897 -3.98942 44.6546 -19.7012 -1.77828
lowerback 41.0013 -3.82507 5.31376
upperback 9.83311 -2.82437 -0.718689
thorax -8.87487 -1.37826 -2.32773
lowerneck -8.56504 2.06874 -4.80236
upperneck -20.979 5.30294 14.3875
head -5.33554 2.09261 5.35127
rclavicle -1.82882e-014 -6.41081e-015
rhumerus 58.9583 -13.8906 -56.8733
rradius 16.7733
rwrist -18.9183
rhand -19.4791 26.7355
rfingers 7.12502
rthumb 6.84265 -3.13391
lclavicle -1.82882e-014 -6.41081e-015
lhumerus -2.70684 0.769741 39.7429
lradius 62.5187
lwrist -3.26718
lhand 17.0833 33.8099
lfingers 7.12502
lthumb 41.8089 58.4636
rfemur -90.7554 -1.58461 15.5928
rtibia 57.0957
rfoot -5.74275 -6.6228
rtoes -18.8868
lfemur -60.7444 12.55 8.06952
ltibia 48.514
lfoot -9.84743 20.4007
ltoes -22.2727
1328
root 11.2133 14.5875 -4.0021 44.539 -19.2343 -1.51567
lowerback 41.0322 -3.68881 5.15687
upperback 9.77162 -2.71208 -0.723707
thorax -8.94374 -1.32517 -2.29839
lowerneck -8.36177 1.96611 -4.61882
upperneck -21.1634 5.14316 14.1995
head -5.40492 1.99762 5.26049
rclavicle 1.27222e-014 -4.6615e-014
rhumerus 57.8888 -12.6517 -55.932
rradius 16.7647
rwrist -20.176
rhand -19.363 29.6512
rfingers 7.12502
rthumb 6.95477 -0.214599
lclavicle 1.27222e-014 -4.6615e-014
lhumerus -3.17169 0.424805 39.6819
lradius 61.6353
lwrist -2.85662
lhand 16.7907 33.9373
lfingers 7.12502
lthumb 41.5345 58.6814
rfemur -90.722 -1.75374 14.8146
rtibia 57.1696
rfoot -5.42414 -7.24801
rtoes -17.8204
lfemur -61.2018 12.3669 7.78324
ltibia 48.4785
lfoot -10.6144 20.0372
ltoes -19.7987
1329
root 11.2605 14.5833 -4.0139 44.4159 -18.5889 -1.41783
lowerback 41.0414 -3.64218 5.27275
upperback 9.8523 -2.60214 -0.684136
thorax -8.84771 -1.27198 -2.36311
lowerneck -8.98744 1.74163 -4.67734
upperneck -20.9496 4.79198 14.1145
head -5.19786 1.86839 5.25492
rclavicle 7.95139e-015 -7.40473e-015
rhumerus 57.2766 -11.6257 -55.3972
rradius 17.676
rwrist -21.94
rhand -18.8159 25.5847
rfingers 7.12502
rthumb 7.48289 -4.2629
lclavicle 7.95139e-015 -7.40473e-015
lhumerus -3.34728 0.464989 39.6733
lradius 60.6708
lwrist -2.81328
lhand 17.4517 34.465
lfingers 7.12502
lthumb 42.1542 59.0032
rfemur -90.5403 -1.94633 14.3185
rtibia 57.2301
rfoot -5.51279 -7.79381
rtoes -14.6104
lfemur -61.7016 12.219 7.74077
ltibia 48.4784
lfoot -9.44529 20.0592
ltoes -25.9907
